<?xml version="1.0" encoding="UTF-8" standalone="no"?>
<!DOCTYPE svg PUBLIC "-//W3C//DTD SVG 1.1//EN" "http://www.w3.org/Graphics/SVG/1.1/DTD/svg11.dtd">
<svg width="100%" height="100%" viewBox="0 0 1080 1080" version="1.1" xmlns="http://www.w3.org/2000/svg" xmlns:xlink="http://www.w3.org/1999/xlink" xml:space="preserve" xmlns:serif="http://www.serif.com/" style="fill-rule:evenodd;clip-rule:evenodd;stroke-linejoin:round;stroke-miterlimit:2;">
    <g transform="matrix(1,0,0,1,0,-2260)">
        <g id="transparent" transform="matrix(0.435429,0,0,0.307879,1101.771429,2260)">
            <path d="M-343.963,0C-265.999,-0 -191.229,43.802 -136.1,121.77C-80.971,199.738 -50,305.485 -50,415.748L-50,3092.126C-50,3202.389 -80.971,3308.136 -136.1,3386.104C-191.229,3464.072 -265.999,3507.874 -343.963,3507.874C-821.201,3507.874 -1759.114,3507.874 -2236.352,3507.874C-2314.316,3507.874 -2389.086,3464.072 -2444.215,3386.104C-2499.344,3308.136 -2530.315,3202.389 -2530.315,3092.126L-2530.315,415.748C-2530.315,305.485 -2499.344,199.738 -2444.215,121.77C-2389.086,43.802 -2314.316,-0 -2236.352,0L-343.963,0Z" style="fill:none;"/>
            <clipPath id="_clip1">
                <path d="M-343.963,0C-265.999,-0 -191.229,43.802 -136.1,121.77C-80.971,199.738 -50,305.485 -50,415.748L-50,3092.126C-50,3202.389 -80.971,3308.136 -136.1,3386.104C-191.229,3464.072 -265.999,3507.874 -343.963,3507.874C-821.201,3507.874 -1759.114,3507.874 -2236.352,3507.874C-2314.316,3507.874 -2389.086,3464.072 -2444.215,3386.104C-2499.344,3308.136 -2530.315,3202.389 -2530.315,3092.126L-2530.315,415.748C-2530.315,305.485 -2499.344,199.738 -2444.215,121.77C-2389.086,43.802 -2314.316,-0 -2236.352,0L-343.963,0Z"/>
            </clipPath>
            <g clip-path="url(#_clip1)">
                <g transform="matrix(2.762331,0,0,3.906726,3471.932864,-3784.330753)">
                    <g transform="matrix(0.707107,0.707107,-0.707107,0.707107,-1291.721419,-154.981636)">
                        <path d="M756.376,1667.624L626.213,1667.624C587.643,1667.624 556.376,1636.357 556.376,1597.787L556.376,1490.406L626.919,1560.949L756.376,1431.492L756.376,1667.624Z" style="fill:white;"/>
                    </g>
                    <g transform="matrix(0.707107,0.707107,-0.707107,0.707107,-1291.721419,-154.981636)">
                        <path d="M1056.376,1490.406L1056.376,1597.787C1056.376,1636.357 1025.109,1667.624 986.539,1667.624L856.376,1667.624L856.376,1431.492L985.833,1560.949L1056.376,1490.406Z" style="fill:white;"/>
                    </g>
                    <g transform="matrix(0.707107,0.707107,-0.707107,0.707107,-1291.721419,-154.981636)">
                        <path d="M556.376,1490.07L556.376,1237.461C556.376,1218.939 563.734,1201.176 576.831,1188.079C589.928,1174.982 607.691,1167.624 626.213,1167.624L986.539,1167.624C1005.061,1167.624 1022.824,1174.982 1035.921,1188.079C1049.018,1201.176 1056.376,1218.939 1056.376,1237.461L1056.376,1490.07L806.376,1240.07L556.376,1490.07Z" style="fill:white;"/>
                    </g>
                </g>
            </g>
        </g>
    </g>
</svg>
